:SAMPLES-PER-SECOND 30
:FRAME-RANGE 1-2775
:FULLY-SPECIFIED
:DEGREES
1128
root  -62.8152 39.952 22.2147 -179.722 44.5981 179.604
RightUpLeg  3.73513 -8.83019 -6.94984
RightLeg  0.262483 -20.6318 2.45179
RightFoot  -2.35438 -0.604896 7.48161
RightToes  -5.28216e-011 1.2921e-014 -6.02303e-014
Spine  4.34872 0.497828 0.138607
Spine1  -2.07679 0.972061 -2.6034
HEad  -1.1156 -5.16074 -2.14369
LeftShoulder1  1.29292 0.199796 -33.071
LeftArm  12.1566 11.0371 -29.0289
LeftForeArm  3.40457 -8.84438 -15.6796
LeftHand  0.184584 0.179191 -4.17258
RightShoulder  7.01502 8.43835 51.4418
RightArm  15.5209 -1.55704 15.3445
RightForeArm  14.8408 4.70225 16.3425
RightHand  0.403037 8.2064 3.04966
LeftUpLeg  -2.3694 9.28694 4.10132
LeftLeg  3.62675 8.94447 -3.05437
LeftFoot  -1.4774 0.367941 -4.16095
LeftToes  -2.158e-010 -1.26819e-010 -1.05346e-011
1129
root  -63.0455 39.9483 21.97 -179.728 44.7308 179.626
RightUpLeg  3.76388 -9.01709 -7.45108
RightLeg  0.172505 -20.438 2.37463
RightFoot  -1.94612 -0.662294 7.88538
RightToes  -5.28216e-011 1.2921e-014 -6.02303e-014
Spine  4.328 0.49899 -0.0835389
Spine1  -2.08257 0.966761 -2.66391
HEad  -1.13602 -4.9873 -2.08103
LeftShoulder1  1.30444 0.169355 -33.0598
LeftArm  12.6749 10.6965 -29.0403
LeftForeArm  3.07269 -9.19998 -15.532
LeftHand  0.190884 0.165188 -4.3006
RightShoulder  7.04064 8.42605 51.6773
RightArm  15.8742 -1.29902 15.4851
RightForeArm  14.4909 4.82837 16.3475
RightHand  0.373521 8.17397 2.80687
LeftUpLeg  -2.35867 9.25638 3.66027
LeftLeg  3.75762 9.18108 -3.20705
LeftFoot  -1.66648 0.312707 -3.57681
LeftToes  -2.158e-010 -1.26819e-010 -1.05346e-011
1130
root  -63.2644 39.942 21.7539 -179.782 44.8848 179.598
RightUpLeg  3.67455 -9.18522 -7.94365
RightLeg  0.333367 -20.1386 2.19188
RightFoot  -1.64343 -0.722299 8.36723
RightToes  -5.28216e-011 1.2921e-014 -6.02303e-014
Spine  4.44897 0.515744 -0.318855
Spine1  -2.21108 0.967355 -2.69065
HEad  -1.12172 -4.90827 -2.15369
LeftShoulder1  1.32914 0.111253 -33.1183
LeftArm  12.9776 10.1114 -28.996
LeftForeArm  3.11674 -9.34558 -15.465
LeftHand  0.172788 0.118707 -3.85457
RightShoulder  7.179 8.63072 51.8001
RightArm  16.5524 -1.50422 15.5789
RightForeArm  13.8215 5.5659 16.1355
RightHand  0.382 8.192 2.87448
LeftUpLeg  -2.3169 9.12498 3.17019
LeftLeg  3.7749 9.55694 -3.27254
LeftFoot  -1.77282 0.262083 -3.00432
LeftToes  -2.158e-010 -1.26819e-010 -1.05346e-011
1131
root  -63.4626 39.9376 21.5675 -179.861 45.0519 179.548
RightUpLeg  3.59555 -9.2606 -8.35448
RightLeg  0.421225 -19.8039 1.99058
RightFoot  -1.29263 -0.763845 8.572
RightToes  -5.28216e-011 1.2921e-014 -6.02303e-014
Spine  4.33754 0.445834 -0.592005
Spine1  -2.0121 0.890231 -2.73765
HEad  -1.07423 -4.59915 -2.19911
LeftShoulder1  1.33093 0.0989828 -33.0305
LeftArm  12.8329 9.46149 -29.0365
LeftForeArm  3.2947 -9.45274 -15.3811
LeftHand  0.168179 0.0400399 -3.68662
RightShoulder  7.24375 8.72755 51.8517
RightArm  17.3817 -1.4333 15.906
RightForeArm  13.1664 6.32842 15.8942
RightHand  0.374425 8.15741 2.81881
LeftUpLeg  -2.21089 8.96224 2.69472
LeftLeg  3.65308 9.96226 -3.2973
LeftFoot  -1.82439 0.221387 -2.52805
LeftToes  -2.158e-010 -1.26819e-010 -1.05346e-011
1132
root  -63.6426 39.9348 21.4059 -179.882 45.3479 179.507
RightUpLeg  3.45176 -9.25343 -8.65459
RightLeg  0.440093 -19.6524 1.77505
RightFoot  -0.993839 -0.810713 8.86139
RightToes  -5.28216e-011 1.2921e-014 -6.02303e-014
Spine  4.23108 0.464522 -0.809399
Spine1  -1.91927 0.897894 -2.75516
HEad  -0.768793 -4.38261 -2.34888
LeftShoulder1  1.34041 0.0765823 -33.0519
LeftArm  12.7462 8.78396 -29.0228
LeftForeArm  3.05995 -9.65629 -15.266
LeftHand  0.17837 0.0937286 -3.95637
RightShoulder  7.18541 8.61781 51.8989
RightArm  18.8622 -1.1993 16.0627
RightForeArm  12.1183 7.24497 15.639
RightHand  0.420591 8.26178 3.18334
LeftUpLeg  -2.0752 8.76538 2.24616
LeftLeg  3.3625 10.4918 -3.29176
LeftFoot  -1.87323 0.196391 -2.23572
LeftToes  -2.158e-010 -1.26819e-010 -1.05346e-011
1133
root  -63.8006 39.9337 21.2688 -179.962 45.6674 179.401
RightUpLeg  3.4242 -9.1649 -8.90685
RightLeg  0.208514 -19.4736 1.56838
RightFoot  -0.666115 -0.845106 8.97879
RightToes  -5.28216e-011 1.2921e-014 -6.02303e-014
Spine  4.11008 0.448994 -1.01975
Spine1  -1.86387 0.883584 -2.84427
HEad  -0.240084 -4.15686 -2.47793
LeftShoulder1  1.3461 0.060046 -33.0297
LeftArm  12.9079 8.25781 -28.9584
LeftForeArm  3.07665 -10.1254 -14.99
LeftHand  0.15501 -0.1161 -3.2823
RightShoulder  7.28449 8.77251 51.9495
RightArm  19.8755 -1.27645 16.1601
RightForeArm  11.4823 8.0422 15.338
RightHand  0.3804 8.27706 2.83903
LeftUpLeg  -1.89001 8.55994 1.79274
LeftLeg  2.98247 11.0496 -3.28918
LeftFoot  -1.81549 0.173114 -1.94685
LeftToes  -2.158e-010 -1.26819e-010 -1.05346e-011
1134
root  -63.9448 39.9327 21.1591 -179.966 45.9555 179.342
RightUpLeg  3.38968 -9.09806 -9.11221
RightLeg  -0.0891451 -19.2477 1.44661
RightFoot  -0.368753 -0.88584 9.17772
RightToes  -5.28216e-011 1.2921e-014 -6.02303e-014
Spine  4.03926 0.428903 -1.21678
Spine1  -1.91992 0.84263 -2.78814
HEad  0.124063 -3.59413 -2.71675
LeftShoulder1  1.34929 0.0612647 -33.0327
LeftArm  13.2354 7.77251 -28.919
LeftForeArm  2.40486 -10.6914 -14.6904
LeftHand  0.170694 0.0022949 -3.71045
RightShoulder  7.23776 8.73129 51.7944
RightArm  20.1146 -1.20218 16.3648
RightForeArm  11.478 8.43072 15.1357
RightHand  0.377702 8.2976 2.81101
LeftUpLeg  -1.76887 8.37028 1.42837
LeftLeg  2.62403 11.48 -3.29692
LeftFoot  -1.83359 0.163368 -1.83204
LeftToes  -2.158e-010 -1.26819e-010 -1.05346e-011
